<?xml version="1.0" encoding="UTF-8"?><svg id="Layer_1" xmlns="http://www.w3.org/2000/svg" viewBox="0 0 841.89 442.92"><defs><style>.cls-1{fill:#fff;}</style></defs><path class="cls-1" d="M805.22,300.95H36.67c-5.31,0-9.61,4.3-9.61,9.61v95.68c0,5.31,4.3,9.61,9.61,9.61H805.22c5.31,0,9.61-4.31,9.61-9.61v-95.68c0-5.31-4.3-9.61-9.61-9.61M255.62,140.27c-3.2,2.82-8.97,7.11-11.08,8.58-2.12,1.47-6.41,4.23-8.29,5.77-1.89,1.54-5.9,5.29-7.88,7.46-1.99,2.18-5.19,5.03-8.01,7.62-2.38,2.12-4.89,4.1-7.5,5.92h-.26c-1.84,1.02-4.16,.36-5.19-1.48-.85-1.53-.55-3.44,.73-4.64,1.38-1.61,2.86-3.14,4.45-4.55,2.1-1.79,4.04-3.76,5.8-5.89l7.97-10c.26-.34,.26-.81,0-1.15-.28-.5-.9-.67-1.39-.39,0,0,0,0-.01,0-4.36,2.63-24.83,16.21-28.6,18.67-2.56,1.7-9.61,5.86-10.22,5.99-2.2,.59-4.47-.63-5.19-2.78-.58-1.63-.05-3.45,1.31-4.52,3.88-3.2,6.22-4.93,8.81-6.85,2.6-1.92,9.13-6.89,12.3-9.29,3.17-2.4,5.89-4.17,8.62-6.12,.76-.55,.93-1.61,.38-2.37s-1.61-.93-2.37-.38c-1.86,1.09-11.31,6.41-13.9,7.59-2.59,1.18-5.41,2.12-9.36,3.81-3.94,1.7-7.17,3.2-7.17,3.2,0,0-5.7,3.2-9.8,5-2.43,1.37-5.52,.51-6.89-1.92-1.37-2.43-.51-5.52,1.92-6.89,1.06-.77,4.74-2.72,5.67-3.2,3.62-1.73,11.63-6.41,14.99-8.2,3.36-1.79,9.61-4.74,11.79-5.64,2.18-.9,6.21-2.82,6.21-2.82,.81-.47,1.1-1.52,.64-2.34-.42-.7-1.27-1.02-2.05-.77-3.36,.99-6.73,1.83-10.79,2.72-4.07,.9-12.5,2.72-15.86,3.52-3.37,.8-7.05,1.83-12.4,2.65-1.81,.41-3.67-.39-4.61-1.98-1.22-2.06-.65-4.71,1.32-6.08,4.12-1.81,8.34-3.38,12.65-4.71,4.55-1.38,8.78-3.43,13.39-4.49,5.29-1.1,10.47-2.67,15.47-4.71,12.81-5.54,14.83-11.85,15.19-12.81,.67-2.18-.64-2.3-2.12-2.37-7.91-.26-15.76,0-22.78-4.04-2.52-1.25-4.46-3.44-5.41-6.08-.48-2.02,0-4.29,2.34-4.71,2.05-.09,4.11,.09,6.12,.54l5.13,.54c3.18,.42,6.4,.61,9.61,.58,3.49,0,6.82-.61,10.31-.8,12.17-.71,20.28-.38,30.59,5.38,2.32,1.4,5.22,1.4,7.53,0V36.22c0-5.06-4.1-9.16-9.16-9.16h-110.45c.81,.7,1.59,1.45,2.31,2.24,2.85,3.2,7.14,8.97,8.58,11.08,1.45,2.12,4.23,6.57,5.8,8.3,1.57,1.73,5.26,5.9,7.46,7.88,2.21,1.98,5.03,5.19,7.62,8.01,2.11,2.44,4.08,4.99,5.9,7.66l.19,.26c1.04,1.83,.41,4.16-1.41,5.22-1.55,.88-3.51,.56-4.71-.77-1.61-1.34-3.11-2.8-4.52-4.36-1.91-2.15-3.99-4.14-6.22-5.96l-9.99-7.97c-.34-.26-.81-.26-1.16,0-.49,.28-.67,.9-.39,1.39h0c2.6,4.37,16.21,24.81,18.68,28.59,1.67,2.56,5.86,9.61,5.99,10.24,.61,2.2-.62,4.49-2.79,5.19-1.63,.6-3.46,.07-4.52-1.31-3.2-3.91-4.93-6.22-6.82-8.81l-9.35-12.5c-2.41-3.2-4.17-5.89-6.15-8.62-.64-.68-1.71-.72-2.4-.08-.57,.53-.7,1.39-.32,2.06,1.09,1.86,6.4,11.31,7.56,13.9,1.15,2.59,2.14,5.41,3.81,9.36,1.67,3.94,3.21,7.17,3.21,7.17,0,0,3.2,5.7,5,9.8,1.56,2.3,.96,5.43-1.33,6.99-2.3,1.56-5.43,.96-6.99-1.33-.14-.2-.26-.41-.36-.62-1.17-1.82-2.24-3.7-3.21-5.64-1.76-3.62-6.41-11.63-8.2-14.99-1.79-3.36-4.74-9.61-5.64-11.79-.89-2.18-2.82-6.22-2.82-6.22-.46-.82-1.49-1.11-2.31-.66,0,0-.01,0-.02,.01-.7,.42-1.02,1.27-.77,2.05,.99,3.36,1.83,6.73,2.72,10.8,.89,4.07,2.72,12.49,3.52,16.02,.8,3.52,1.83,7.08,2.66,12.4,.39,1.8-.43,3.64-2.02,4.55-2.05,1.22-4.69,.64-6.06-1.32-1.86-4.1-3.49-8.31-4.9-12.58-1.35-4.58-3.4-8.75-4.46-13.39-1.1-5.28-2.67-10.45-4.71-15.44-5.54-12.81-11.85-14.86-12.97-15.21-2.18-.67-2.31,.64-2.37,2.12-.29,7.88,0,15.76-4.07,22.77-1.24,2.54-3.43,4.48-6.08,5.41-1.99,.45-4.26,0-4.68-2.34-.09-2.05,.09-4.11,.54-6.12,.19-1.69,.35-3.43,.54-5.12,.4-3.19,.59-6.4,.58-9.61,0-3.49-.61-6.82-.8-10.31-.58-12.3-.32-20.44,5.41-30.75,1.45-2.35,1.45-5.31,0-7.66H36.25c-5.06-.02-9.17,4.07-9.19,9.13v110.77c.89-.99,1.73-1.86,2.4-2.46,3.21-2.89,9-7.15,11.12-8.62,2.12-1.47,6.41-4.23,8.3-5.77,1.89-1.54,5.89-5.28,7.88-7.46,1.98-2.18,5.19-5.03,8.01-7.63,2.43-2.12,4.99-4.08,7.66-5.89,.07-.08,.16-.15,.25-.19,1.84-1.02,4.17-.36,5.19,1.48,.85,1.53,.55,3.44-.73,4.63-1.38,1.61-2.86,3.12-4.46,4.52-2.17,1.9-4.17,3.98-5.99,6.22l-7.98,10c-.37,.44-.3,1.08,.13,1.44,.34,.28,.81,.32,1.19,.09,4.39-2.59,24.82-16.21,28.6-18.67,2.56-1.67,9.61-5.86,10.22-5.99,2.2-.61,4.5,.61,5.22,2.79,.59,1.63,.05,3.46-1.34,4.51-3.88,3.21-6.18,4.94-8.78,6.86-2.59,1.92-9.22,6.89-12.43,9.29-3.21,2.41-5.93,4.17-8.62,6.12-.76,.55-.94,1.61-.39,2.37,.55,.76,1.61,.93,2.37,.38,1.83-1.09,11.31-6.41,13.87-7.56,2.56-1.16,5.41-2.15,9.39-3.81s7.17-3.2,7.17-3.2c0,0,5.67-3.21,9.77-5,2.34-1.5,5.45-.83,6.95,1.51,1.51,2.34,.83,5.45-1.51,6.95-.12,.08-.25,.15-.38,.22-1.83,1.17-3.72,2.24-5.67,3.21-3.59,1.73-11.6,6.4-14.96,8.19-3.36,1.8-9.61,4.71-11.78,5.64-2.18,.93-6.25,2.82-6.25,2.82-.88,.39-1.29,1.42-.9,2.3,.39,.89,1.42,1.29,2.31,.9,3.36-1.02,6.73-1.83,10.8-2.72,4.07-.89,12.52-2.72,15.86-3.52,3.33-.8,7.08-1.86,12.43-2.66,1.77-.38,3.6,.42,4.51,1.99,1.25,2.05,.68,4.73-1.31,6.08-4.1,1.86-8.29,3.5-12.56,4.9-4.58,1.35-8.78,3.4-13.42,4.46-5.28,1.07-10.45,2.64-15.44,4.68-12.81,5.57-14.86,11.89-15.21,13.01-.64,2.18,.64,2.31,2.14,2.37,7.88,.25,15.73,0,22.78,4.03,2.53,1.25,4.46,3.45,5.38,6.12,.48,1.98,0,4.26-2.34,4.68-2.05,.09-4.09-.09-6.09-.55-1.73-.22-3.43-.38-5.16-.54-3.18-.42-6.39-.61-9.61-.58-3.49,0-6.82,.58-10.31,.8-12.17,.7-20.28,.38-30.62-5.38-2.35-1.45-5.31-1.45-7.66,0v54.13c-.02,5.06,4.07,9.18,9.13,9.2h110.77c-.81-.71-1.58-1.47-2.3-2.27-2.85-3.21-7.11-8.97-8.59-11.09-1.47-2.11-4.26-6.4-5.79-8.29-1.54-1.89-5.26-5.86-7.44-7.88-2.18-2.02-5.06-5.19-7.62-8.01-2.12-2.43-4.1-4.99-5.93-7.66-.06-.08-.11-.17-.16-.26-1.11-1.76-.58-4.1,1.19-5.21,1.59-1.01,3.68-.68,4.9,.76,1.62,1.37,3.15,2.85,4.55,4.45,1.89,2.18,3.97,4.18,6.22,5.99l10,8.17c.41,.4,1.05,.38,1.45-.02,.35-.36,.39-.92,.09-1.32-2.63-4.32-16.21-24.8-18.71-28.57-1.67-2.56-5.83-9.61-5.99-10.22-.59-2.21,.65-4.5,2.82-5.22,1.63-.57,3.44-.03,4.49,1.35,3.36,3.88,4.97,6.22,6.85,8.78,1.89,2.56,6.92,9.13,9.29,12.3,2.37,3.17,4.2,5.77,6.12,8.48,.66,.67,1.73,.69,2.41,.04l.03-.04c.59-.55,.72-1.44,.32-2.14-1.12-1.83-6.41-11.31-7.56-13.9-1.16-2.59-2.15-5.38-3.85-9.35-1.7-3.97-3.2-7.18-3.2-7.18,0,0-3.2-5.7-5-9.61-1.4-2.41-.58-5.49,1.83-6.88,2.41-1.4,5.49-.58,6.89,1.83,1.16,1.82,2.23,3.71,3.21,5.63,1.76,3.62,6.4,11.63,8.23,14.96,1.83,3.33,4.71,9.61,5.61,11.82,.9,2.21,2.85,6.22,2.85,6.22,.44,.8,1.45,1.1,2.26,.66l.05-.03c.71-.4,1.04-1.24,.8-2.02-1.03-3.2-1.83-6.73-2.76-10.79-.93-4.07-2.69-12.53-3.49-16.02-.8-3.49-1.86-7.05-2.66-12.4-.42-1.79,.39-3.64,1.98-4.55,2.07-1.23,4.73-.64,6.08,1.35,1.85,4.1,3.49,8.29,4.9,12.56,1.34,4.58,3.39,8.78,4.42,13.42,1.1,5.28,2.67,10.45,4.71,15.44,5.57,12.81,11.85,14.86,12.81,15.18,2.21,.67,2.31-.61,2.37-2.11,.29-7.88,0-15.73,4.07-22.75,1.25-2.54,3.43-4.49,6.09-5.45,2.02-.44,4.29,0,4.68,2.37,.14,2.06,0,4.13-.42,6.15-.22,1.7-.38,3.43-.54,5.16-.42,3.19-.61,6.4-.58,9.61,0,3.49,.58,6.82,.77,10.31,.73,12.17,.41,20.28-5.35,30.63-1.45,2.34-1.45,5.31,0,7.66h54.23c5.05-.02,9.14-4.11,9.14-9.16v-110.45c-.65,.78-1.35,1.52-2.09,2.21M104.09,325.24h11.25v58.33h-11.25v-58.33Zm45.31,58.33v-26.72c0-3.55-1.52-6-5.24-6-3.21,0-6.34,2.03-9.29,5.16v27.56h-10.15v-40.83h8.62l.93,5.75c3.8-3.63,8.12-6.59,13.61-6.59,7.61,0,11.66,4.65,11.66,12.26v29.42h-10.15Zm31.78,.85c-5.92,0-12-1.86-15.89-3.97l1.36-8.46c4.39,2.87,9.8,4.82,14.88,4.82,4.39,0,6.76-1.61,6.76-4.32,0-2.87-1.78-4.05-8.28-5.66-9.89-2.53-14.04-5.41-14.04-12.85s5.58-12.09,15.05-12.09c5.33,0,10.23,1.1,14.29,2.88l-1.35,8.45c-4.06-2.28-8.88-3.72-12.94-3.72-3.8,0-5.67,1.52-5.67,3.72s1.53,3.47,7.61,5.07c10.57,2.71,14.71,5.58,14.71,13.27s-5.75,12.85-16.48,12.85m46.91-.85v-26.72c0-3.55-1.52-6-5.24-6-3.21,0-6.34,2.03-9.3,5.16v27.56h-10.14v-59.43l10.14-1.61v25.36c3.38-3.13,7.61-6,13.02-6,7.61,0,11.66,4.65,11.66,12.26v29.42h-10.15Zm44.04,0l-.93-5.75c-3.8,3.63-8.2,6.59-13.61,6.59-7.69,0-11.67-4.65-11.67-12.35v-29.33h10.15v26.71c0,3.55,1.52,5.92,5.16,5.92,3.21,0,6.42-2.03,9.38-5.07v-27.56h10.15v40.83h-8.63Zm32.2,.68c-8.03,0-13.45-2.96-13.45-12.26v-20.97h-5.75v-8.28h5.75v-12.94l9.98-1.52v14.46h8.37l1.26,8.28h-9.64v19.28c0,3.3,1.52,5.07,5.41,5.07,1.18,0,2.28-.08,3.22-.34l1.27,8.54c-1.61,.34-3.47,.68-6.43,.68m17.33-48.36c-3.38,0-6.09-2.37-6.09-5.75s2.71-5.92,6.09-5.92,6,2.45,6,5.92-2.71,5.75-6,5.75m-5.16,6.85h10.14v40.83h-10.14v-40.83Zm93.82,40.83l-3.8-50.05-20.2,50.39h-4.65l-20.2-50.39-3.8,50.05h-5.41l4.65-58.33h7.18l20.04,50.89,20.12-50.89h7.1l4.65,58.33h-5.67Zm45.47,0l-.93-5.92c-4.39,3.89-8.96,6.77-14.37,6.77-8.03,0-11.92-4.65-11.92-12.26v-28.57h5.58v27.56c0,5.15,2.37,8.19,7.44,8.19,4.23,0,8.54-2.53,12.94-6.85v-28.91h5.57v39.99h-4.31Zm51.13,0h-13.44v-58.33h13.53c12,0,18,5.83,18,14.54,0,6.25-3.55,10.57-8.88,12.76,6.94,1.95,11.5,6.43,11.5,14.2,0,11.16-8.2,16.82-20.71,16.82m-.08-53.26h-7.61v20.29h7.44c8.28,0,12.6-4.48,12.6-10.57s-4.06-9.72-12.43-9.72m.25,25.1h-7.86v23.08h8.19c8.88,0,14.46-4.14,14.46-11.41,0-7.95-5.67-11.67-14.79-11.67m58.23,28.16l-.93-5.92c-4.39,3.89-8.96,6.77-14.37,6.77-8.03,0-11.92-4.65-11.92-12.26v-28.57h5.58v27.56c0,5.15,2.37,8.19,7.44,8.19,4.23,0,8.54-2.53,12.94-6.85v-28.91h5.57v39.99h-4.31Zm14.27,0v-4.31l23.84-31.03h-21.81l-.76-4.65h29v4.31l-23.84,31.02h23.76l.76,4.65h-30.94Zm44.38-49.54c-2.2,0-4.06-1.86-4.06-4.06s1.86-4.06,4.06-4.06,3.97,1.86,3.97,4.06-1.77,4.06-3.97,4.06m-2.79,9.56h5.5v39.99h-5.5v-39.99Zm70.16,39.99v-27.56c0-5.16-2.11-8.28-7.27-8.28-4.15,0-8.28,2.53-12.68,6.85v29h-5.5v-27.56c0-5.16-2.11-8.28-7.27-8.28-4.15,0-8.37,2.53-12.68,6.76v29.08h-5.58v-39.99h4.31l.93,5.75c4.31-3.8,8.79-6.59,14.12-6.59,6.17,0,9.55,2.54,10.99,6.93,4.4-3.97,9.05-6.93,14.55-6.93,7.95,0,11.67,4.57,11.67,12.18v28.66h-5.58Zm42.67,0l-.93-5.33c-3.72,3.47-8.37,6.18-14.12,6.18-6.94,0-11.92-3.8-11.92-10.91,0-9.38,7.61-13.78,25.7-15.56v-2.62c0-5.41-3.22-7.69-8.29-7.69-4.73,0-9.38,1.44-13.78,3.55l-.76-4.99c4.65-2.03,9.21-3.46,14.88-3.46,8.88,0,13.44,4.14,13.44,12.35v28.49h-4.23Zm-1.26-21.22c-15.73,1.61-20.12,5.41-20.12,10.82,0,4.31,2.96,6.51,7.19,6.51s9.04-2.37,12.94-6v-11.33ZM341.31,90.87h-8.4v36.14h-18.78V28.82h28.75c22.49,0,36,10.39,36,30.17,0,21.2-15.08,31.88-37.57,31.88m.57-46.96h-8.97v31.74h8.26c12.1,0,19.21-4.98,19.21-16.23,0-10.24-6.4-15.51-18.5-15.51m85.95,83.11l-1.43-8.96c-5.55,5.83-12.66,10.39-22.91,10.39-11.67,0-19.5-7.11-19.5-19.07,0-16.65,13.66-23.91,41.41-26.62v-1.99c0-7.4-4.27-10.24-11.81-10.24-7.97,0-15.51,2.27-22.91,5.55l-2.14-13.66c7.97-3.14,16.37-5.56,27.32-5.56,17.79,0,26.62,6.55,26.62,23.06v47.1h-14.66Zm-2.42-34.3c-19.78,2.42-24.48,8.25-24.48,14.8,0,4.98,3.13,7.97,8.4,7.97,5.84,0,11.39-2.7,16.08-7.4v-15.37Zm48.39-5.12v39.42h-17.08V58.29h14.52l2.14,13.8c4.55-7.97,11.38-14.66,22.05-15.23l2.71,16.94c-10.67,.71-19.49,6.4-24.33,13.8m63.89,40.56c-13.52,0-22.63-4.98-22.63-20.63v-35.3h-9.68v-13.94h9.68v-21.78l16.79-2.56v24.34h14.09l2.13,13.94h-16.22v32.45c0,5.55,2.56,8.54,9.11,8.54,1.99,0,3.84-.14,5.41-.57l2.13,14.37c-2.71,.57-5.84,1.14-10.82,1.14m66.03-1.14v-44.97c0-5.98-2.56-10.1-8.83-10.1-5.41,0-10.67,3.42-15.65,8.68v46.39h-17.08V58.29h14.51l1.56,9.67c6.41-6.12,13.67-11.1,22.91-11.1,12.81,0,19.64,7.83,19.64,20.63v49.52h-17.08Zm64.74,1.42c-19.21,0-33.58-10.96-33.58-35.72,0-22.34,13.38-35.86,31.31-35.86,20.63,0,29.89,15.51,29.89,35.01,0,1.43-.14,3.13-.14,4.13h-44.26c.85,13.52,8.11,19.21,18.64,19.21,8.82,0,16.08-3.27,23.62-8.53l2,13.37c-7.4,5.12-16.37,8.4-27.47,8.4m-16.51-43.12h27.47c-1.14-10.68-5.41-16.65-13.66-16.65-6.83,0-12.52,5.55-13.81,16.65m75,2.27v39.42h-17.08V58.29h14.51l2.14,13.8c4.55-7.97,11.38-14.66,22.05-15.23l2.71,16.94c-10.67,.71-19.5,6.4-24.33,13.8m56.35,40.84c-9.96,0-20.21-3.13-26.76-6.69l2.28-14.23c7.4,4.83,16.51,8.11,25.04,8.11,7.4,0,11.39-2.71,11.39-7.26,0-4.84-3-6.83-13.95-9.53-16.65-4.27-23.63-9.11-23.63-21.63s9.39-20.35,25.33-20.35c8.97,0,17.22,1.85,24.05,4.84l-2.27,14.23c-6.83-3.84-14.94-6.26-21.78-6.26-6.4,0-9.53,2.56-9.53,6.26s2.56,5.84,12.81,8.54c17.79,4.56,24.76,9.4,24.76,22.35s-9.68,21.63-27.75,21.63m-468.18,34.13h9.62v96.21h-9.62v-96.21Zm74.46,96.21v-45.46c0-8.51-3.9-13.66-12.27-13.66-6.97,0-14.08,4.32-21.33,11.43v47.69h-9.2v-65.95h7.11l1.53,9.76c7.25-6.41,14.78-11.16,23.71-11.16,13.11,0,19.66,7.53,19.66,20.22v47.13h-9.2Zm120.9,0v-46.01h-53.4v46.01h-9.62v-96.21h9.62v41.55h53.4v-41.55h9.63v96.21h-9.63Zm53.42,1.39c-17.29,0-29.7-11.71-29.7-34.44,0-21.2,11.99-34.3,28.31-34.3,17.85,0,26.77,14.78,26.77,33.05v1.96h-45.88c.28,16.31,7.81,25.79,21.06,25.79,8.79,0,16.46-3.9,23.29-9.76l1.39,8.36c-6.56,5.58-15.06,9.35-25.24,9.35m-20.22-41h36.12c-.84-11.85-6.7-20.35-17.43-20.35-9.62,0-16.88,7.11-18.69,20.35m103.33,39.6l-1.53-8.78c-6.14,5.72-13.8,10.18-23.29,10.18-11.43,0-19.66-6.28-19.66-17.99,0-15.48,12.55-22.73,42.39-25.66v-4.32c0-8.92-5.3-12.69-13.67-12.69-7.81,0-15.48,2.37-22.73,5.85l-1.25-8.23c7.67-3.35,15.2-5.72,24.54-5.72,14.64,0,22.17,6.83,22.17,20.36v46.99h-6.98Zm-2.09-35c-25.93,2.65-33.19,8.93-33.19,17.85,0,7.11,4.88,10.74,11.85,10.74s14.92-3.91,21.34-9.9v-18.69Zm30.96,35v-98.44l9.06-1.68v100.12h-9.06Zm52.01,1.12c-10.32,0-17.15-4.04-17.15-16.18v-43.08h-10.18v-7.81h10.18v-22.87l9.07-1.54v24.41h15.2l1.25,7.81h-16.45v41.55c0,6.69,2.64,9.62,9.76,9.62,2.09,0,4.6-.42,6.14-.7l1.39,7.67c-1.96,.56-5.3,1.12-9.21,1.12m68.47-1.12v-45.46c0-8.51-3.9-13.66-12.27-13.66-6.97,0-14.08,4.32-21.33,11.43v47.69h-9.2v-98.44l9.2-1.68v43.51c6.83-6,14.22-10.74,23.15-10.74,13.1,0,19.66,7.53,19.66,20.08v47.27h-9.21Z"/></svg>